<?xml version="1.0" encoding="UTF-8"?>
<svg id="uuid-c245ee99-68ab-4bf7-997f-761e9f2d373e" data-name="Layer 3" xmlns="http://www.w3.org/2000/svg" viewBox="0 0 499.44 167.5">
  <defs>
    <style>
      .uuid-a56d8c7b-f689-46d8-b6e6-34602b8a858f {
        fill: none;
        stroke: #000;
        stroke-miterlimit: 10;
        stroke-width: .5px;
      }
    </style>
  </defs>
  <g>
    <path d="m104.81,53.17l1.32.28-4.63,14.69h-41.93v-1.48h2.04c2.29,0,3.93-.74,4.91-2.24.56-.85.84-2.82.84-5.91V23.59c0-3.38-.37-5.5-1.12-6.35-1.04-1.17-2.58-1.76-4.63-1.76h-2.04v-1.48h24.52v1.48c-2.88-.03-4.89.24-6.05.8-1.16.56-1.95,1.26-2.38,2.12s-.64,2.89-.64,6.11v34.02c0,2.21.21,3.73.64,4.55.32.56.81.97,1.48,1.24.67.27,2.74.4,6.23.4h3.95c4.15,0,7.07-.31,8.74-.92,1.68-.61,3.21-1.7,4.59-3.25,1.38-1.56,2.77-4.01,4.15-7.37Z"/>
    <path d="m121.34,30.49v29.39c0,2.29.17,3.81.5,4.57.33.76.82,1.32,1.48,1.7.65.37,1.84.56,3.57.56v1.44h-17.77v-1.44c1.78,0,2.98-.17,3.59-.52.61-.35,1.1-.92,1.46-1.72.36-.8.54-2.33.54-4.59v-14.1c0-3.97-.12-6.53-.36-7.71-.19-.85-.48-1.44-.88-1.78-.4-.33-.95-.5-1.64-.5-.75,0-1.65.2-2.72.6l-.56-1.44,11.02-4.47h1.76Zm-3.31-19.13c1.12,0,2.07.39,2.85,1.18.79.79,1.18,1.74,1.18,2.85s-.39,2.08-1.18,2.88c-.79.8-1.74,1.2-2.85,1.2s-2.08-.4-2.88-1.2c-.8-.8-1.2-1.76-1.2-2.88s.39-2.07,1.18-2.85,1.75-1.18,2.89-1.18Z"/>
    <path d="m136.53,45.35c-.03,5.43,1.29,9.69,3.95,12.78,2.66,3.09,5.79,4.63,9.38,4.63,2.4,0,4.48-.66,6.25-1.98,1.77-1.32,3.25-3.57,4.45-6.77l1.24.8c-.56,3.65-2.18,6.97-4.87,9.96-2.69,2.99-6.06,4.49-10.1,4.49-4.39,0-8.15-1.71-11.28-5.13s-4.69-8.02-4.69-13.8c0-6.25,1.6-11.13,4.81-14.63,3.21-3.5,7.23-5.25,12.08-5.25,4.1,0,7.47,1.35,10.1,4.05,2.64,2.7,3.95,6.32,3.95,10.84h-25.28Zm0-2.32h16.93c-.13-2.34-.41-3.99-.84-4.95-.67-1.49-1.66-2.66-2.97-3.51-1.32-.85-2.7-1.28-4.13-1.28-2.21,0-4.19.86-5.93,2.58-1.74,1.72-2.76,4.11-3.05,7.17Z"/>
  </g>
  <g>
    <path d="m189.07,13.85h14.73l33.19,40.72v-31.31c0-3.34-.37-5.42-1.12-6.25-.99-1.12-2.55-1.68-4.68-1.68h-1.88v-1.48h18.9v1.48h-1.92c-2.3,0-3.92.69-4.88,2.08-.59.85-.88,2.8-.88,5.85v45.76h-1.44l-35.8-43.72v33.43c0,3.34.36,5.42,1.08,6.25,1.01,1.12,2.58,1.68,4.68,1.68h1.92v1.48h-18.9v-1.48h1.88c2.32,0,3.96-.69,4.92-2.08.59-.85.88-2.8.88-5.85V20.98c-1.58-1.84-2.77-3.06-3.58-3.64-.81-.59-2.01-1.13-3.58-1.64-.77-.24-1.95-.36-3.52-.36v-1.48Z"/>
    <path d="m262.86,30.39v29.47c0,2.3.17,3.82.5,4.58.33.76.83,1.33,1.48,1.7.65.37,1.85.56,3.58.56v1.44h-17.82v-1.44c1.79,0,2.99-.17,3.6-.52.61-.35,1.1-.92,1.46-1.72s.54-2.34.54-4.6v-14.13c0-3.98-.12-6.55-.36-7.73-.19-.85-.48-1.45-.88-1.78-.4-.33-.95-.5-1.64-.5-.75,0-1.66.2-2.72.6l-.56-1.44,11.05-4.48h1.76Zm-3.32-19.18c1.12,0,2.08.39,2.86,1.18.79.79,1.18,1.74,1.18,2.86s-.39,2.08-1.18,2.88c-.79.8-1.74,1.2-2.86,1.2s-2.08-.4-2.88-1.2-1.2-1.76-1.2-2.88.39-2.08,1.18-2.86c.79-.79,1.75-1.18,2.9-1.18Z"/>
    <path d="m277.68,45.28c-.03,5.45,1.29,9.72,3.96,12.81,2.67,3.1,5.81,4.64,9.41,4.64,2.4,0,4.49-.66,6.27-1.98s3.26-3.58,4.46-6.79l1.24.8c-.56,3.66-2.19,6.99-4.88,9.99-2.7,3-6.07,4.5-10.13,4.5-4.4,0-8.17-1.71-11.31-5.15-3.14-3.43-4.7-8.04-4.7-13.83,0-6.27,1.61-11.16,4.82-14.67,3.22-3.51,7.25-5.27,12.11-5.27,4.11,0,7.49,1.35,10.13,4.06,2.64,2.71,3.96,6.33,3.96,10.87h-25.34Zm0-2.32h16.98c-.13-2.35-.41-4-.84-4.96-.67-1.49-1.66-2.67-2.98-3.52-1.32-.85-2.7-1.28-4.14-1.28-2.22,0-4.2.86-5.95,2.58s-2.77,4.12-3.06,7.19Z"/>
    <path d="m319.04,11.21v48.65c0,2.3.17,3.82.5,4.56.33.75.85,1.31,1.54,1.7.69.39,1.99.58,3.88.58v1.44h-17.98v-1.44c1.68,0,2.83-.17,3.44-.52.61-.35,1.09-.92,1.44-1.72.35-.8.52-2.34.52-4.6V26.55c0-4.14-.09-6.68-.28-7.63-.19-.95-.49-1.59-.9-1.94-.41-.35-.94-.52-1.58-.52-.69,0-1.58.21-2.64.64l-.68-1.4,10.93-4.48h1.8Z"/>
    <path d="m352.18,30.39v12.49h-1.32c-1.01-3.92-2.32-6.59-3.9-8.01-1.59-1.41-3.61-2.12-6.07-2.12-1.87,0-3.38.49-4.52,1.48-1.15.99-1.72,2.08-1.72,3.28,0,1.5.43,2.78,1.28,3.84.83,1.09,2.51,2.26,5.04,3.48l5.85,2.84c5.42,2.64,8.13,6.13,8.13,10.45,0,3.34-1.26,6.03-3.78,8.07s-5.34,3.06-8.47,3.06c-2.24,0-4.8-.4-7.69-1.2-.88-.27-1.6-.4-2.16-.4-.61,0-1.09.35-1.44,1.04h-1.32v-13.09h1.32c.75,3.74,2.17,6.55,4.28,8.45,2.11,1.9,4.47,2.84,7.09,2.84,1.84,0,3.34-.54,4.5-1.62s1.74-2.38,1.74-3.9c0-1.84-.65-3.39-1.94-4.64-1.29-1.25-3.88-2.84-7.75-4.76-3.87-1.92-6.41-3.66-7.61-5.21-1.2-1.52-1.8-3.44-1.8-5.77,0-3.02,1.03-5.54,3.1-7.57,2.07-2.03,4.75-3.04,8.03-3.04,1.44,0,3.19.31,5.25.92,1.36.4,2.27.6,2.72.6.43,0,.76-.09,1-.28.24-.19.52-.6.84-1.24h1.32Z"/>
    <path d="m365.32,45.28c-.03,5.45,1.29,9.72,3.96,12.81,2.67,3.1,5.81,4.64,9.41,4.64,2.4,0,4.49-.66,6.27-1.98s3.26-3.58,4.46-6.79l1.24.8c-.56,3.66-2.19,6.99-4.88,9.99s-6.07,4.5-10.13,4.5c-4.4,0-8.18-1.71-11.31-5.15-3.14-3.43-4.71-8.04-4.71-13.83,0-6.27,1.61-11.16,4.83-14.67,3.22-3.51,7.25-5.27,12.11-5.27,4.11,0,7.49,1.35,10.13,4.06,2.64,2.71,3.96,6.33,3.96,10.87h-25.34Zm0-2.32h16.98c-.13-2.35-.41-4-.84-4.96-.67-1.49-1.66-2.67-2.98-3.52-1.32-.85-2.7-1.28-4.14-1.28-2.21,0-4.2.86-5.95,2.58-1.75,1.72-2.77,4.12-3.06,7.19Z"/>
    <path d="m404.77,38.16c4.3-5.18,8.39-7.77,12.29-7.77,2,0,3.72.5,5.17,1.5s2.59,2.65,3.44,4.94c.59,1.6.88,4.06.88,7.37v15.66c0,2.32.19,3.9.56,4.72.29.67.77,1.19,1.42,1.56.65.37,1.86.56,3.62.56v1.44h-18.14v-1.44h.76c1.71,0,2.9-.26,3.58-.78.68-.52,1.15-1.29,1.42-2.3.11-.4.16-1.65.16-3.76v-15.01c0-3.34-.43-5.76-1.3-7.27-.87-1.51-2.33-2.26-4.38-2.26-3.18,0-6.34,1.74-9.49,5.21v19.34c0,2.48.15,4.02.44,4.6.37.77.89,1.34,1.54,1.7s1.98.54,3.98.54v1.44h-18.14v-1.44h.8c1.87,0,3.13-.47,3.78-1.42.65-.95.98-2.76.98-5.43v-13.61c0-4.4-.1-7.09-.3-8.05-.2-.96-.51-1.61-.92-1.96-.42-.35-.97-.52-1.66-.52-.75,0-1.64.2-2.68.6l-.6-1.44,11.05-4.48h1.72v7.77Z"/>
  </g>
  <path d="m169.93,47.79h20.7v6.05h-20.7v-6.05Z"/>
  <g>
    <path d="m49.3,75.53l.6,12.7h-1.52c-.29-2.24-.69-3.83-1.2-4.79-.83-1.54-1.92-2.68-3.29-3.41-1.37-.73-3.17-1.1-5.41-1.1h-7.63v41.37c0,3.33.36,5.4,1.08,6.23,1.01,1.12,2.57,1.68,4.67,1.68h1.88v1.48H15.52v-1.48h1.92c2.29,0,3.91-.69,4.87-2.08.58-.85.88-2.79.88-5.83v-41.37h-6.51c-2.53,0-4.33.19-5.39.56-1.38.51-2.57,1.48-3.55,2.91-.99,1.44-1.57,3.38-1.76,5.83h-1.52l.64-12.7h44.2Z"/>
    <path d="m78.98,74.29c7.03,0,13.12,2.67,18.27,8.01,5.15,5.34,7.73,12,7.73,19.98s-2.6,15.05-7.79,20.48c-5.19,5.43-11.47,8.15-18.85,8.15s-13.72-2.65-18.79-7.95c-5.07-5.3-7.61-12.15-7.61-20.56s2.93-15.61,8.78-21.04c5.08-4.71,11.17-7.07,18.25-7.07Zm-.76,2.91c-4.85,0-8.73,1.8-11.66,5.39-3.65,4.47-5.47,11.02-5.47,19.65s1.89,15.64,5.67,20.4c2.9,3.62,6.73,5.43,11.5,5.43,5.08,0,9.28-1.98,12.6-5.95,3.31-3.97,4.97-10.22,4.97-18.77,0-9.26-1.82-16.17-5.47-20.72-2.93-3.62-6.97-5.43-12.14-5.43Z"/>
    <path d="m135.5,74.29c7.03,0,13.12,2.67,18.27,8.01,5.15,5.34,7.73,12,7.73,19.98s-2.6,15.05-7.79,20.48c-5.19,5.43-11.47,8.15-18.85,8.15s-13.72-2.65-18.79-7.95c-5.07-5.3-7.61-12.15-7.61-20.56s2.93-15.61,8.78-21.04c5.08-4.71,11.17-7.07,18.25-7.07Zm-.76,2.91c-4.85,0-8.73,1.8-11.66,5.39-3.65,4.47-5.47,11.02-5.47,19.65s1.89,15.64,5.67,20.4c2.9,3.62,6.73,5.43,11.5,5.43,5.08,0,9.28-1.98,12.6-5.95,3.31-3.97,4.97-10.22,4.97-18.77,0-9.26-1.82-16.17-5.47-20.72-2.93-3.62-6.97-5.43-12.14-5.43Z"/>
    <path d="m211.52,114.7l1.32.28-4.63,14.69h-41.93v-1.48h2.04c2.29,0,3.93-.74,4.91-2.24.56-.85.84-2.82.84-5.91v-34.94c0-3.38-.37-5.5-1.12-6.35-1.04-1.17-2.58-1.76-4.63-1.76h-2.04v-1.48h24.52v1.48c-2.88-.03-4.89.24-6.05.8-1.16.56-1.95,1.26-2.38,2.12s-.64,2.89-.64,6.11v34.02c0,2.21.21,3.73.64,4.55.32.56.81.97,1.48,1.24.67.27,2.74.4,6.23.4h3.95c4.15,0,7.07-.31,8.74-.92,1.68-.61,3.21-1.7,4.59-3.25,1.38-1.56,2.77-4.01,4.15-7.37Z"/>
    <path d="m280.35,75.53v1.48c-1.41,0-2.55.25-3.43.76-.88.51-1.72,1.45-2.52,2.83-.53.93-1.37,3.15-2.52,6.67l-15.09,43.64h-1.6l-12.34-34.62-12.26,34.62h-1.44l-16.09-44.96c-1.2-3.35-1.96-5.34-2.28-5.95-.53-1.01-1.26-1.76-2.18-2.26-.92-.49-2.16-.74-3.73-.74v-1.48h20.04v1.48h-.96c-1.41,0-2.49.32-3.23.96-.74.64-1.12,1.41-1.12,2.32s.59,3.07,1.76,6.43l10.66,30.39,8.98-25.83-1.6-4.55-1.28-3.63c-.56-1.33-1.19-2.5-1.88-3.51-.35-.51-.77-.93-1.28-1.28-.67-.48-1.33-.82-2-1.04-.51-.16-1.3-.24-2.4-.24v-1.48h21.08v1.48h-1.44c-1.49,0-2.58.32-3.27.96-.69.64-1.04,1.5-1.04,2.6,0,1.36.6,3.73,1.8,7.11l10.38,29.43,10.3-29.83c1.17-3.3,1.76-5.59,1.76-6.87,0-.61-.19-1.18-.58-1.72-.38-.53-.87-.9-1.46-1.12-1.01-.37-2.33-.56-3.95-.56v-1.48h16.17Z"/>
    <path d="m308.77,74.29c7.03,0,13.12,2.67,18.27,8.01,5.15,5.34,7.73,12,7.73,19.98s-2.6,15.05-7.79,20.48c-5.19,5.43-11.47,8.15-18.85,8.15s-13.72-2.65-18.79-7.95c-5.07-5.3-7.61-12.15-7.61-20.56s2.93-15.61,8.78-21.04c5.08-4.71,11.17-7.07,18.25-7.07Zm-.76,2.91c-4.85,0-8.73,1.8-11.66,5.39-3.65,4.47-5.47,11.02-5.47,19.65s1.89,15.64,5.67,20.4c2.9,3.62,6.73,5.43,11.5,5.43,5.08,0,9.28-1.98,12.6-5.95,3.31-3.97,4.97-10.22,4.97-18.77,0-9.26-1.82-16.17-5.47-20.72-2.93-3.62-6.97-5.43-12.14-5.43Z"/>
    <path d="m390.4,129.68h-14.45l-18.33-25.31c-1.36.05-2.46.08-3.31.08-.35,0-.72,0-1.12-.02-.4-.01-.81-.03-1.24-.06v15.73c0,3.41.37,5.52,1.12,6.35,1.01,1.17,2.53,1.76,4.55,1.76h2.12v1.48h-23.2v-1.48h2.04c2.29,0,3.93-.74,4.91-2.24.56-.82.84-2.78.84-5.87v-34.98c0-3.41-.37-5.52-1.12-6.35-1.04-1.17-2.58-1.76-4.63-1.76h-2.04v-1.48h19.73c5.75,0,9.99.42,12.72,1.26s5.04,2.38,6.95,4.63c1.9,2.25,2.85,4.93,2.85,8.05,0,3.33-1.08,6.22-3.25,8.67-2.17,2.45-5.53,4.18-10.08,5.19l11.18,15.53c2.56,3.57,4.75,5.94,6.59,7.11,1.84,1.17,4.23,1.92,7.19,2.24v1.48Zm-38.45-27.83c.5,0,.94,0,1.32.02.37.01.68.02.92.02,5.16,0,9.06-1.12,11.68-3.35,2.62-2.24,3.93-5.08,3.93-8.54s-1.06-6.13-3.17-8.25-4.92-3.17-8.41-3.17c-1.54,0-3.63.25-6.27.76v22.52Z"/>
    <path d="m412.72,99.65l19.96,19.84c3.27,3.27,6.07,5.5,8.38,6.69,2.32,1.18,4.63,1.86,6.95,2.02v1.48h-25.75v-1.48c1.54,0,2.66-.26,3.33-.78.68-.52,1.02-1.1,1.02-1.74s-.13-1.21-.38-1.72c-.25-.51-1.08-1.45-2.5-2.83l-18.69-18.49v17.45c0,2.74.17,4.55.52,5.43.27.67.83,1.24,1.68,1.72,1.14.64,2.36.96,3.63.96h1.84v1.48h-23.08v-1.48h1.92c2.24,0,3.86-.65,4.87-1.96.64-.85.96-2.9.96-6.15v-34.98c0-2.74-.17-4.56-.52-5.47-.27-.64-.81-1.2-1.64-1.68-1.17-.64-2.4-.96-3.67-.96h-1.92v-1.48h23.08v1.48h-1.84c-1.25,0-2.46.31-3.63.92-.83.43-1.4,1.07-1.72,1.92-.32.85-.48,2.61-.48,5.27v16.57c.53-.51,2.36-2.2,5.47-5.07,7.91-7.24,12.68-12.07,14.33-14.49.72-1.06,1.08-2,1.08-2.79,0-.61-.28-1.15-.84-1.62-.56-.47-1.5-.7-2.83-.7h-1.24v-1.48h19.88v1.48c-1.17.03-2.24.19-3.19.48-.96.29-2.13.86-3.51,1.7-1.38.84-3.09,2.19-5.11,4.05-.59.53-3.29,3.26-8.11,8.19l-8.27,8.23Z"/>
    <path d="m480.75,74.29v18.73h-1.48c-.48-3.59-1.34-6.45-2.58-8.58-1.24-2.13-3-3.82-5.29-5.07-2.29-1.25-4.66-1.88-7.11-1.88-2.77,0-5.06.85-6.87,2.54-1.81,1.69-2.71,3.61-2.71,5.77,0,1.65.57,3.15,1.72,4.51,1.65,2,5.58,4.66,11.78,7.99,5.06,2.71,8.51,4.8,10.36,6.25,1.85,1.45,3.27,3.16,4.27,5.13,1,1.97,1.5,4.03,1.5,6.19,0,4.1-1.59,7.63-4.77,10.6-3.18,2.97-7.27,4.45-12.28,4.45-1.57,0-3.05-.12-4.43-.36-.83-.13-2.54-.62-5.13-1.46-2.6-.84-4.24-1.26-4.93-1.26s-1.19.2-1.58.6-.67,1.22-.86,2.48h-1.48v-18.57h1.48c.69,3.89,1.62,6.79,2.79,8.72,1.17,1.93,2.96,3.53,5.37,4.81,2.41,1.28,5.05,1.92,7.93,1.92,3.33,0,5.96-.88,7.89-2.64,1.93-1.76,2.89-3.83,2.89-6.23,0-1.33-.37-2.67-1.1-4.03-.73-1.36-1.87-2.62-3.41-3.79-1.04-.8-3.87-2.5-8.5-5.09-4.63-2.6-7.93-4.66-9.88-6.21-1.96-1.54-3.44-3.25-4.45-5.11-1.01-1.86-1.52-3.91-1.52-6.15,0-3.89,1.49-7.23,4.47-10.04,2.98-2.81,6.77-4.21,11.38-4.21,2.88,0,5.92.71,9.14,2.12,1.49.67,2.54,1,3.15,1,.69,0,1.26-.21,1.7-.62.44-.41.79-1.24,1.06-2.5h1.48Z"/>
  </g>
  <g>
    <path d="m227.65,157.11v.58h-9.08v-.58h.75c.88,0,1.51-.25,1.91-.77.25-.33.38-1.14.38-2.41v-13.69c0-1.07-.07-1.78-.2-2.12-.1-.26-.32-.48-.64-.67-.46-.25-.94-.38-1.44-.38h-.75v-.58h9.08v.58h-.77c-.86,0-1.5.26-1.89.77-.26.33-.39,1.14-.39,2.41v13.69c0,1.07.07,1.78.2,2.12.1.26.32.48.66.67.45.25.92.38,1.42.38h.77Z"/>
    <path d="m230.03,136.5h5.75l12.95,15.89v-12.22c0-1.3-.15-2.11-.44-2.44-.38-.44-.99-.66-1.83-.66h-.73v-.58h7.38v.58h-.75c-.9,0-1.53.27-1.91.81-.23.33-.34,1.09-.34,2.28v17.86h-.56l-13.97-17.06v13.05c0,1.3.14,2.11.42,2.44.4.44,1.01.66,1.83.66h.75v.58h-7.37v-.58h.73c.91,0,1.55-.27,1.92-.81.23-.33.34-1.09.34-2.28v-14.73c-.61-.72-1.08-1.19-1.4-1.42-.32-.23-.78-.44-1.4-.64-.3-.09-.76-.14-1.38-.14v-.58Z"/>
    <path d="m272.44,136.02l.48,7.2h-.48c-.65-2.16-1.57-3.71-2.77-4.66-1.2-.95-2.64-1.42-4.31-1.42-1.41,0-2.68.36-3.81,1.07-1.14.71-2.03,1.85-2.68,3.41-.65,1.56-.98,3.51-.98,5.83,0,1.92.31,3.58.92,4.98.61,1.41,1.54,2.48,2.77,3.23s2.64,1.12,4.23,1.12c1.38,0,2.59-.29,3.64-.88,1.05-.59,2.21-1.76,3.47-3.51l.48.31c-1.06,1.89-2.3,3.27-3.72,4.14-1.42.88-3.1,1.31-5.05,1.31-3.51,0-6.23-1.3-8.16-3.91-1.44-1.94-2.16-4.22-2.16-6.84,0-2.11.47-4.06,1.42-5.83.95-1.77,2.25-3.14,3.91-4.12,1.66-.97,3.48-1.46,5.45-1.46,1.53,0,3.04.38,4.53,1.12.44.23.75.34.94.34.28,0,.53-.1.73-.3.27-.28.46-.67.58-1.17h.55Z"/>
    <path d="m277.43,154.66c.49,0,.9.17,1.23.51.33.34.5.75.5,1.23s-.17.89-.51,1.23c-.34.34-.75.51-1.23.51s-.89-.17-1.23-.51c-.34-.34-.51-.75-.51-1.23s.17-.9.51-1.23c.34-.33.75-.5,1.23-.5Z"/>
  </g>
  <rect x="278.38" y="137.78" width="211.56" height="3.7"/>
  <rect x="2.36" y="137.78" width="211.56" height="3.7"/>
  <rect y="3.68" width="489.47" height="2.31"/>
  <path d="m497,87.28h-2.3l-2.91-4.02c-.22,0-.39.01-.53.01-.05,0-.11,0-.18,0-.06,0-.13,0-.2,0v2.5c0,.54.06.88.18,1.01.16.19.4.28.72.28h.34v.23h-3.69v-.23h.32c.36,0,.62-.12.78-.36.09-.13.13-.44.13-.93v-5.56c0-.54-.06-.88-.18-1.01-.17-.19-.41-.28-.74-.28h-.32v-.23h3.13c.91,0,1.59.07,2.02.2.43.13.8.38,1.1.74.3.36.45.78.45,1.28,0,.53-.17.99-.52,1.38s-.88.66-1.6.83l1.78,2.47c.41.57.75.94,1.05,1.13s.67.3,1.14.36v.23Zm-6.11-4.42c.08,0,.15,0,.21,0,.06,0,.11,0,.15,0,.82,0,1.44-.18,1.86-.53s.62-.81.62-1.36-.17-.97-.5-1.31c-.34-.34-.78-.5-1.34-.5-.25,0-.58.04-1,.12v3.58Z"/>
  <circle class="uuid-a56d8c7b-f689-46d8-b6e6-34602b8a858f" cx="491.9" cy="82.82" r="7.3"/>
</svg>