<svg width="24" height="24" viewBox="0 0 24 24" fill="none" xmlns="http://www.w3.org/2000/svg">
<path fill-rule="evenodd" clip-rule="evenodd" d="M8 5.33256V6.66494H20.6667V9.30242L19.1875 13.993H7.5805L5.91383 2H2V3.33238H4.75283L6.4195 15.3254H20.1653L22 9.50735V5.33256H8ZM8.70768 16.6704C8.00069 16.6712 7.32288 16.9522 6.82295 17.4518C6.32303 17.9514 6.04182 18.6287 6.04102 19.3352C6.04102 20.0419 6.32197 20.7197 6.82206 21.2194C7.32216 21.7192 8.00044 21.9999 8.70768 21.9999C9.41493 21.9999 10.0932 21.7192 10.5933 21.2194C11.0934 20.7197 11.3743 20.0419 11.3743 19.3352C11.3736 18.6287 11.0923 17.9513 10.5924 17.4518C10.0925 16.9522 9.41468 16.6712 8.70768 16.6704ZM8.70768 20.6675C8.44397 20.6675 8.18619 20.5894 7.96692 20.443C7.74766 20.2966 7.57676 20.0885 7.47584 19.845C7.37493 19.6016 7.34852 19.3337 7.39997 19.0752C7.45142 18.8168 7.5784 18.5794 7.76487 18.393C7.95134 18.2067 8.18892 18.0798 8.44756 18.0284C8.7062 17.977 8.97429 18.0034 9.21793 18.1042C9.46156 18.2051 9.6698 18.3758 9.81631 18.5949C9.96282 18.814 10.041 19.0716 10.041 19.3352C10.0406 19.6884 9.89999 20.0271 9.65003 20.2768C9.40007 20.5266 9.06118 20.6671 8.70768 20.6675ZM16.1564 17.4518C16.6564 16.9522 17.3342 16.6712 18.0412 16.6704C18.7482 16.6712 19.426 16.9522 19.9259 17.4518C20.4258 17.9513 20.7071 18.6287 20.7078 19.3352C20.7078 20.0419 20.4269 20.7197 19.9268 21.2194C19.4267 21.7192 18.7484 21.9999 18.0412 21.9999C17.3339 21.9999 16.6557 21.7192 16.1556 21.2194C15.6555 20.7197 15.3745 20.0419 15.3745 19.3352C15.3753 18.6287 15.6565 17.9514 16.1564 17.4518ZM17.3004 20.443C17.5197 20.5894 17.7775 20.6675 18.0412 20.6675C18.3947 20.6671 18.7336 20.5266 18.9835 20.2768C19.2335 20.0271 19.3741 19.6884 19.3745 19.3352C19.3745 19.0716 19.2963 18.814 19.1498 18.5949C19.0033 18.3758 18.7951 18.2051 18.5514 18.1042C18.3078 18.0034 18.0397 17.977 17.7811 18.0284C17.5224 18.0798 17.2848 18.2067 17.0984 18.393C16.9119 18.5794 16.7849 18.8168 16.7335 19.0752C16.682 19.3337 16.7084 19.6016 16.8093 19.845C16.9103 20.0885 17.0812 20.2966 17.3004 20.443Z" fill="#716A6A"/>
</svg>
