<svg width="39" height="38" viewBox="0 0 39 38" fill="none" xmlns="http://www.w3.org/2000/svg">
<path fill-rule="evenodd" clip-rule="evenodd" d="M8 18.3326V19.6649H20.6667V22.3024L19.1875 26.993H7.5805L5.91383 15H2V16.3324H4.75283L6.4195 28.3254H20.1653L22 22.5074V18.3326H8ZM8.70768 29.6704C8.00069 29.6712 7.32288 29.9522 6.82295 30.4518C6.32303 30.9514 6.04182 31.6287 6.04102 32.3352C6.04102 33.0419 6.32197 33.7197 6.82206 34.2194C7.32216 34.7192 8.00044 34.9999 8.70768 34.9999C9.41493 34.9999 10.0932 34.7192 10.5933 34.2194C11.0934 33.7197 11.3743 33.0419 11.3743 32.3352C11.3736 31.6287 11.0923 30.9513 10.5924 30.4518C10.0925 29.9522 9.41468 29.6712 8.70768 29.6704ZM8.70768 33.6675C8.44397 33.6675 8.18619 33.5894 7.96692 33.443C7.74766 33.2966 7.57676 33.0885 7.47584 32.845C7.37493 32.6016 7.34852 32.3337 7.39997 32.0752C7.45142 31.8168 7.5784 31.5794 7.76487 31.393C7.95134 31.2067 8.18892 31.0798 8.44756 31.0284C8.7062 30.977 8.97429 31.0034 9.21793 31.1042C9.46156 31.2051 9.6698 31.3758 9.81631 31.5949C9.96282 31.814 10.041 32.0716 10.041 32.3352C10.0406 32.6884 9.89999 33.0271 9.65003 33.2768C9.40007 33.5266 9.06118 33.6671 8.70768 33.6675ZM16.1564 30.4518C16.6564 29.9522 17.3342 29.6712 18.0412 29.6704C18.7482 29.6712 19.426 29.9522 19.9259 30.4518C20.4258 30.9513 20.7071 31.6287 20.7078 32.3352C20.7078 33.0419 20.4269 33.7197 19.9268 34.2194C19.4267 34.7192 18.7484 34.9999 18.0412 34.9999C17.3339 34.9999 16.6557 34.7192 16.1556 34.2194C15.6555 33.7197 15.3745 33.0419 15.3745 32.3352C15.3753 31.6287 15.6565 30.9514 16.1564 30.4518ZM17.3004 33.443C17.5197 33.5894 17.7775 33.6675 18.0412 33.6675C18.3947 33.6671 18.7336 33.5266 18.9835 33.2768C19.2335 33.0271 19.3741 32.6884 19.3745 32.3352C19.3745 32.0716 19.2963 31.814 19.1498 31.5949C19.0033 31.3758 18.7951 31.2051 18.5514 31.1042C18.3078 31.0034 18.0397 30.977 17.7811 31.0284C17.5224 31.0798 17.2848 31.2067 17.0984 31.393C16.9119 31.5794 16.7849 31.8168 16.7335 32.0752C16.682 32.3337 16.7084 32.6016 16.8093 32.845C16.9103 33.0885 17.0812 33.2966 17.3004 33.443Z" fill="#0F0F0F"/>
<rect x="10" width="25" height="25" rx="12.5" fill="#BF522B"/>
<path d="M22.237 18V9.068L20.34 10.209V9.054L22.237 7.92H23.28V18H22.237Z" fill="white"/>
</svg>
