<svg width="24" height="24" viewBox="0 0 24 24" fill="none" xmlns="http://www.w3.org/2000/svg">
<path d="M14.6708 19.9999C14.5001 20.0005 14.3314 19.9628 14.1771 19.8897C14.0229 19.8165 13.887 19.7097 13.7794 19.5771L8.25996 12.7206C8.09188 12.5161 8 12.2597 8 11.995C8 11.7303 8.09188 11.4738 8.25996 11.2693L13.9737 4.41282C14.1677 4.17945 14.4464 4.0327 14.7486 4.00484C15.0508 3.97698 15.3516 4.07029 15.585 4.26426C15.8184 4.45823 15.9651 4.73696 15.993 5.03913C16.0208 5.34131 15.9275 5.64217 15.7335 5.87554L10.6255 12.0007L15.5621 18.1258C15.7019 18.2936 15.7906 18.4978 15.8179 18.7144C15.8452 18.931 15.8099 19.1509 15.7161 19.3481C15.6223 19.5452 15.4741 19.7114 15.2888 19.8269C15.1036 19.9424 14.8891 20.0025 14.6708 19.9999Z" fill="#0F0F0F"/>
</svg>
