<svg width="24" height="24" viewBox="0 0 24 24" fill="none" xmlns="http://www.w3.org/2000/svg">
<path d="M11.9875 15.9923C11.7209 15.9929 11.4626 15.9 11.2573 15.7299L4.41214 10.0256C4.17916 9.83199 4.03264 9.55372 4.00483 9.25204C3.97701 8.95037 4.07018 8.65 4.26383 8.41702C4.45747 8.18404 4.73574 8.03752 5.03742 8.00971C5.33909 7.9819 5.63946 8.07506 5.87244 8.26871L11.9875 13.3798L18.1025 8.45125C18.2192 8.35648 18.3534 8.28571 18.4976 8.24301C18.6417 8.2003 18.7929 8.18651 18.9423 8.20241C19.0918 8.21831 19.2367 8.2636 19.3686 8.33567C19.5005 8.40774 19.6169 8.50518 19.7111 8.62238C19.8156 8.73968 19.8947 8.8773 19.9435 9.02661C19.9923 9.17592 20.0098 9.3337 19.9948 9.49007C19.9798 9.64644 19.9327 9.79803 19.8564 9.93534C19.7801 10.0726 19.6762 10.1927 19.5514 10.288L12.7062 15.7984C12.495 15.9416 12.242 16.0099 11.9875 15.9923Z" fill="#0F0F0F"/>
</svg>
