<svg width="24" height="24" viewBox="0 0 24 24" fill="none" xmlns="http://www.w3.org/2000/svg">
<path d="M9.11694 19.9979C8.8505 19.9985 8.59229 19.9057 8.38713 19.7357C8.27167 19.6399 8.17622 19.5224 8.10626 19.3897C8.0363 19.257 7.9932 19.1118 7.97943 18.9625C7.96566 18.8131 7.98149 18.6625 8.02601 18.5193C8.07053 18.3761 8.14287 18.243 8.23889 18.1278L13.3476 12.0156L8.42134 5.89208C8.32662 5.77543 8.25589 5.64122 8.2132 5.49715C8.17052 5.35308 8.15673 5.202 8.17262 5.05259C8.18852 4.90317 8.23378 4.75837 8.30582 4.62651C8.37786 4.49464 8.47525 4.37832 8.59239 4.28421C8.71038 4.1804 8.84855 4.1021 8.99823 4.05422C9.14791 4.00633 9.30588 3.98991 9.46221 4.00597C9.61854 4.02203 9.76986 4.07023 9.90668 4.14755C10.0435 4.22487 10.1629 4.32963 10.2573 4.45526L15.7651 11.2972C15.9328 11.5013 16.0245 11.7572 16.0245 12.0213C16.0245 12.2855 15.9328 12.5414 15.7651 12.7454L10.0634 19.5874C9.94902 19.7254 9.80371 19.8345 9.63926 19.9058C9.47481 19.9772 9.29587 20.0087 9.11694 19.9979Z" fill="#0F0F0F"/>
</svg>
