<svg width="24" height="24" viewBox="0 0 24 24" fill="none" xmlns="http://www.w3.org/2000/svg">
<path d="M18.8556 16.0025C18.5887 16.003 18.33 15.91 18.1244 15.7397L12.0011 10.6217L5.86638 15.5569C5.74953 15.6518 5.61507 15.7227 5.47074 15.7655C5.32641 15.8082 5.17505 15.8221 5.02536 15.8061C4.87567 15.7902 4.73061 15.7449 4.59851 15.6727C4.4664 15.6005 4.34986 15.5029 4.25559 15.3856C4.16069 15.2687 4.08983 15.1343 4.04706 14.9899C4.0043 14.8456 3.99049 14.6943 4.00641 14.5446C4.02233 14.3949 4.06769 14.2498 4.13986 14.1177C4.21203 13.9856 4.30959 13.8691 4.42695 13.7748L11.2814 8.25695C11.4858 8.08893 11.7422 7.99707 12.0068 7.99707C12.2714 7.99707 12.5279 8.08893 12.7323 8.25695L19.5867 13.969C19.7024 14.0649 19.798 14.1827 19.8681 14.3156C19.9382 14.4485 19.9814 14.594 19.9952 14.7436C20.009 14.8932 19.9931 15.0441 19.9485 15.1876C19.9039 15.3311 19.8314 15.4644 19.7352 15.5798C19.6289 15.7108 19.4949 15.8167 19.3428 15.8898C19.1907 15.9629 19.0243 16.0014 18.8556 16.0025Z" fill="#0F0F0F"/>
</svg>
