<svg width="380" height="50" viewBox="0 0 380 50" fill="none" xmlns="http://www.w3.org/2000/svg">
<path d="M25 46.369C36.8018 46.369 46.369 36.8018 46.369 25C46.369 13.1982 36.8018 3.63095 25 3.63095C13.1982 3.63095 3.63095 13.1982 3.63095 25C3.63095 36.8018 13.1982 46.369 25 46.369Z" fill="#E0B59D" stroke="#9E5C43" stroke-width="2.7381"/>
<path d="M24.692 35V20.084L21.44 22.052V19.664L24.692 17.72H26.864V35H24.692Z" fill="#281407"/>
<line x1="46" y1="23" x2="114" y2="23" stroke="#9E5C43" stroke-width="4"/>
<path d="M135.477 46.8456C147.278 46.8456 156.846 37.2784 156.846 25.4766C156.846 13.6748 147.278 4.10751 135.477 4.10751C123.675 4.10751 114.108 13.6748 114.108 25.4766C114.108 37.2784 123.675 46.8456 135.477 46.8456Z" stroke="#9E5C43" stroke-width="2.7381"/>
<path d="M129.2 34.988L129.212 33.068L136.88 26.168C137.52 25.592 137.948 25.048 138.164 24.536C138.388 24.016 138.5 23.484 138.5 22.94C138.5 22.276 138.348 21.676 138.044 21.14C137.74 20.604 137.324 20.18 136.796 19.868C136.276 19.556 135.684 19.4 135.02 19.4C134.332 19.4 133.72 19.564 133.184 19.892C132.648 20.212 132.224 20.64 131.912 21.176C131.608 21.712 131.46 22.296 131.468 22.928H129.284C129.284 21.84 129.536 20.88 130.04 20.048C130.544 19.208 131.228 18.552 132.092 18.08C132.964 17.6 133.952 17.36 135.056 17.36C136.128 17.36 137.088 17.608 137.936 18.104C138.784 18.592 139.452 19.26 139.94 20.108C140.436 20.948 140.684 21.9 140.684 22.964C140.684 23.716 140.588 24.368 140.396 24.92C140.212 25.472 139.924 25.984 139.532 26.456C139.14 26.92 138.648 27.416 138.056 27.944L131.684 33.668L131.408 32.948H140.684V34.988H129.2Z" fill="#281407"/>
<line x1="156" y1="23" x2="224" y2="23" stroke="#9E5C43" stroke-width="4"/>
<path d="M245.477 46.8456C257.278 46.8456 266.846 37.2784 266.846 25.4766C266.846 13.6748 257.278 4.10751 245.477 4.10751C233.675 4.10751 224.108 13.6748 224.108 25.4766C224.108 37.2784 233.675 46.8456 245.477 46.8456Z" stroke="#9E5C43" stroke-width="2.7381"/>
<path d="M244.42 35.336C243.564 35.336 242.768 35.18 242.032 34.868C241.296 34.548 240.66 34.1 240.124 33.524C239.596 32.94 239.208 32.248 238.96 31.448L241.012 30.86C241.276 31.66 241.716 32.268 242.332 32.684C242.948 33.1 243.64 33.304 244.408 33.296C245.112 33.28 245.72 33.12 246.232 32.816C246.752 32.504 247.152 32.08 247.432 31.544C247.72 31.008 247.864 30.388 247.864 29.684C247.864 28.612 247.544 27.744 246.904 27.08C246.264 26.408 245.424 26.072 244.384 26.072C244.096 26.072 243.792 26.112 243.472 26.192C243.16 26.272 242.868 26.384 242.596 26.528L241.564 24.836L247.972 19.04L248.248 19.76H239.644V17.72H249.832V19.772L244.372 25.004L244.348 24.248C245.492 24.168 246.492 24.356 247.348 24.812C248.204 25.268 248.868 25.92 249.34 26.768C249.82 27.616 250.06 28.588 250.06 29.684C250.06 30.788 249.812 31.764 249.316 32.612C248.82 33.46 248.148 34.128 247.3 34.616C246.452 35.096 245.492 35.336 244.42 35.336Z" fill="#281407"/>
<line x1="266" y1="23" x2="334" y2="23" stroke="#9E5C43" stroke-width="4"/>
<path d="M355.477 46.8456C367.278 46.8456 376.846 37.2784 376.846 25.4766C376.846 13.6748 367.278 4.10751 355.477 4.10751C343.675 4.10751 334.108 13.6748 334.108 25.4766C334.108 37.2784 343.675 46.8456 355.477 46.8456Z" stroke="#9E5C43" stroke-width="2.7381"/>
<path d="M357.144 35V31.82H349.2V29.792L354.9 17.72H357.324L351.624 29.792H357.144V24.932H359.304V29.792H361.104V31.82H359.304V35H357.144Z" fill="#281407"/>
</svg>
