<svg width="24" height="24" viewBox="0 0 24 24" fill="none" xmlns="http://www.w3.org/2000/svg">
<path d="M16.7702 2.32532C16.9785 2.11702 17.2611 2 17.5557 2C17.8504 2 18.1329 2.11702 18.3413 2.32532L21.6747 5.6587C21.883 5.86706 22 6.14963 22 6.44426C22 6.73889 21.883 7.02146 21.6747 7.22982L11.6746 17.2299C11.4662 17.4383 11.1837 17.5554 10.889 17.5555H7.55562C7.26093 17.5555 6.97831 17.4384 6.76994 17.2301C6.56156 17.0217 6.4445 16.7391 6.4445 16.4444V13.111C6.44456 12.8163 6.56167 12.5338 6.77006 12.3254L16.7702 2.32532ZM8.66675 13.571V15.3333H10.429L19.318 6.44426L17.5557 4.68202L8.66675 13.571ZM2 6.44426C2 5.85488 2.23413 5.28964 2.65088 4.87289C3.06763 4.45614 3.63287 4.22201 4.22225 4.22201H9.77787C10.0726 4.22201 10.3552 4.33908 10.5636 4.54745C10.7719 4.75583 10.889 5.03845 10.889 5.33314C10.889 5.62782 10.7719 5.91044 10.5636 6.11882C10.3552 6.3272 10.0726 6.44426 9.77787 6.44426H4.22225V19.7778H17.5557V14.2221C17.5557 13.9274 17.6728 13.6448 17.8812 13.4364C18.0896 13.2281 18.3722 13.111 18.6669 13.111C18.9616 13.111 19.2442 13.2281 19.4525 13.4364C19.6609 13.6448 19.778 13.9274 19.778 14.2221V19.7778C19.778 20.3671 19.5439 20.9324 19.1271 21.3491C18.7104 21.7659 18.1451 22 17.5557 22H4.22225C3.63287 22 3.06763 21.7659 2.65088 21.3491C2.23413 20.9324 2 20.3671 2 19.7778V6.44426Z" fill="#0F0F0F"/>
</svg>
