<svg width="24" height="24" viewBox="0 0 24 24" fill="none" xmlns="http://www.w3.org/2000/svg">
<path d="M18.5277 6.11551C18.1328 5.72063 17.664 5.40745 17.148 5.19384C16.632 4.98023 16.079 4.8704 15.5206 4.87061C14.9622 4.87082 14.4092 4.98107 13.8934 5.19506C13.3776 5.40906 12.9091 5.7226 12.5145 6.11777L11.9994 6.6391L11.4886 6.11889L11.4853 6.11557C11.0906 5.72089 10.6221 5.4078 10.1064 5.1942C9.59071 4.9806 9.03801 4.87066 8.47984 4.87066C7.92167 4.87066 7.36896 4.9806 6.85328 5.1942C6.3376 5.4078 5.86904 5.72089 5.47435 6.11557L5.2449 6.34503C4.4478 7.14213 4 8.22323 4 9.35049C4 10.4778 4.4478 11.5589 5.2449 12.356L11.3008 18.4118L11.9847 19.1283L12.001 19.112L12.0187 19.1297L12.6594 18.4536L18.7571 12.3559C19.553 11.5581 20 10.4773 20 9.35039C20 8.22352 19.553 7.14266 18.7571 6.34493L18.5277 6.11551ZM18.0056 11.6045L12.001 17.6093L5.99622 11.6045C5.3984 11.0067 5.06255 10.1959 5.06255 9.35041C5.06255 8.50496 5.3984 7.69414 5.99622 7.09632L6.22571 6.86686C6.82324 6.26933 7.63357 5.93351 8.47861 5.93319C9.32364 5.93287 10.1342 6.26809 10.7322 6.86517L11.9971 8.15313L13.2681 6.86686C13.5641 6.57085 13.9155 6.33603 14.3022 6.17583C14.689 6.01563 15.1035 5.93317 15.5222 5.93317C15.9408 5.93317 16.3553 6.01563 16.7421 6.17583C17.1288 6.33603 17.4803 6.57085 17.7763 6.86686L18.0057 7.09628C18.6026 7.6946 18.9379 8.50526 18.9378 9.35042C18.9378 10.1956 18.6026 11.0062 18.0056 11.6045Z" fill="#0F0F0F"/>
</svg>
