<svg width="24" height="24" viewBox="0 0 24 24" fill="none" xmlns="http://www.w3.org/2000/svg">
<path d="M12 18.799C11.8947 18.7996 11.7904 18.7794 11.6929 18.7396C11.5955 18.6998 11.5068 18.6411 11.4321 18.567L5.21691 12.3438C4.4373 11.5561 4 10.4925 4 9.38423C4 8.27593 4.4373 7.21238 5.21691 6.42463C6.00261 5.64114 7.06692 5.20117 8.17651 5.20117C9.2861 5.20117 10.3504 5.64114 11.1361 6.42463L12 7.28852L12.8639 6.42463C13.6496 5.64114 14.7139 5.20117 15.8235 5.20117C16.9331 5.20117 17.9974 5.64114 18.7831 6.42463C19.5627 7.21238 20 8.27593 20 9.38423C20 10.4925 19.5627 11.5561 18.7831 12.3438L12.5679 18.567C12.4932 18.6411 12.4045 18.6998 12.3071 18.7396C12.2096 18.7794 12.1053 18.7996 12 18.799Z" fill="#716A6A"/>
</svg>
