<svg width="24" height="24" viewBox="0 0 24 24" fill="none" xmlns="http://www.w3.org/2000/svg">
<path d="M12 2C9.28154 2 8.94274 2.01313 7.87886 2.05813C6.8106 2.11064 6.08801 2.27628 5.45043 2.52382C4.79285 2.78135 4.23278 3.12327 3.67958 3.67959C3.12264 4.23278 2.7776 4.79285 2.52382 5.45043C2.27628 6.08801 2.11064 6.8106 2.05813 7.87886C2.01 8.94337 2 9.28154 2 12C2 14.7185 2.01313 15.0573 2.05813 16.1211C2.11064 17.1863 2.27628 17.912 2.52382 18.5496C2.78135 19.2072 3.12327 19.7672 3.67958 20.3204C4.23278 20.8774 4.79285 21.2224 5.45043 21.4762C6.08801 21.7206 6.81373 21.8894 7.87886 21.9419C8.94337 21.99 9.28154 22 12 22C14.7185 22 15.0573 21.9869 16.1211 21.9419C17.1863 21.8894 17.912 21.72 18.5496 21.4762C19.2072 21.2187 19.7672 20.8767 20.3204 20.3204C20.8774 19.7672 21.2224 19.2103 21.4762 18.5496C21.7206 17.912 21.8894 17.1863 21.9419 16.1211C21.99 15.0566 22 14.7185 22 12C22 9.28154 21.9869 8.94274 21.9419 7.87886C21.8894 6.81373 21.72 6.08426 21.4762 5.45043C21.2187 4.79285 20.8767 4.23278 20.3204 3.67959C19.7672 3.12264 19.2103 2.7776 18.5496 2.52382C17.912 2.27628 17.1863 2.11064 16.1211 2.05813C15.0566 2.01 14.7185 2 12 2ZM12 3.80023C14.6697 3.80023 14.9885 3.81335 16.0436 3.85836C17.0169 3.90399 17.5469 4.06651 17.8989 4.20403C18.3683 4.38592 18.6965 4.60095 19.0515 4.95224C19.3997 5.30041 19.6147 5.63233 19.7966 6.10176C19.9341 6.45368 20.0966 6.98375 20.1423 7.957C20.1873 9.01213 20.2004 9.33154 20.2004 12.0006C20.2004 14.6697 20.1873 14.9891 20.1385 16.0443C20.086 17.0175 19.9235 17.5476 19.7866 17.8995C19.5972 18.3689 19.3859 18.6971 19.0371 19.0521C18.6852 19.4003 18.3502 19.6153 17.8845 19.7972C17.5369 19.9347 16.9994 20.0973 16.0224 20.1429C14.9616 20.1879 14.6491 20.201 11.9725 20.201C9.29591 20.201 8.984 20.1879 7.92199 20.1391C6.94874 20.0866 6.4118 19.9241 6.05988 19.7872C5.58482 19.5978 5.25916 19.3866 4.91036 19.0378C4.55844 18.6858 4.33467 18.3508 4.16215 17.8851C4.02213 17.5376 3.86211 17 3.81023 16.023C3.7746 14.9747 3.75772 14.6497 3.75772 11.9856C3.75772 9.32279 3.7746 8.99713 3.81023 7.93574C3.86211 6.95875 4.02213 6.42243 4.16215 6.07363C4.33467 5.59795 4.55907 5.27291 4.91036 4.92099C5.25853 4.57282 5.58482 4.34779 6.05988 4.17152C6.4118 4.03463 6.93562 3.87211 7.91261 3.82335C8.97337 3.78522 9.28591 3.77147 11.9587 3.77147L12 3.80023ZM12 6.86748C9.16152 6.86748 6.86623 9.1659 6.86623 12.0013C6.86623 14.8397 9.16465 17.135 12 17.135C14.8385 17.135 17.1338 14.8366 17.1338 12.0013C17.1338 9.16277 14.8354 6.86748 12 6.86748ZM12 15.3348C10.1573 15.3348 8.66646 13.844 8.66646 12.0013C8.66646 10.1585 10.1573 8.66771 12 8.66771C13.8427 8.66771 15.3335 10.1585 15.3335 12.0013C15.3335 13.844 13.8427 15.3348 12 15.3348ZM18.5408 6.66246C18.5408 7.32692 18.0001 7.86323 17.3388 7.86323C16.6743 7.86323 16.138 7.32629 16.138 6.66246C16.138 6.00175 16.6781 5.46418 17.3388 5.46418C17.9995 5.46418 18.5408 6.00175 18.5408 6.66246Z" fill="#716A6A"/>
</svg>
