<svg width="25" height="25" viewBox="0 0 25 25" fill="none" xmlns="http://www.w3.org/2000/svg">
<rect width="25" height="25" rx="12.5" fill="#CD845F"/>
<path d="M12.27 18.21C11.6493 18.21 11.0893 18.0653 10.59 17.776C10.0953 17.4867 9.70333 17.0947 9.414 16.6C9.12467 16.1007 8.98 15.5407 8.98 14.92V11C8.98 10.3793 9.12467 9.82167 9.414 9.327C9.70333 8.82767 10.0953 8.43333 10.59 8.144C11.0893 7.85467 11.6493 7.71 12.27 7.71C12.8907 7.71 13.4483 7.85467 13.943 8.144C14.4423 8.43333 14.8367 8.82767 15.126 9.327C15.4153 9.82167 15.56 10.3793 15.56 11V14.92C15.56 15.5407 15.4153 16.1007 15.126 16.6C14.8367 17.0947 14.4423 17.4867 13.943 17.776C13.4483 18.0653 12.8907 18.21 12.27 18.21ZM12.27 17.216C12.6853 17.216 13.0633 17.1157 13.404 16.915C13.7447 16.7097 14.0153 16.4367 14.216 16.096C14.4167 15.7553 14.517 15.3797 14.517 14.969V10.951C14.517 10.5357 14.4167 10.1577 14.216 9.817C14.0153 9.47633 13.7447 9.20567 13.404 9.005C13.0633 8.79967 12.6853 8.697 12.27 8.697C11.8547 8.697 11.4767 8.79967 11.136 9.005C10.7953 9.20567 10.5247 9.47633 10.324 9.817C10.1233 10.1577 10.023 10.5357 10.023 10.951V14.969C10.023 15.3797 10.1233 15.7553 10.324 16.096C10.5247 16.4367 10.7953 16.7097 11.136 16.915C11.4767 17.1157 11.8547 17.216 12.27 17.216Z" fill="white"/>
</svg>
