<svg width="24" height="24" viewBox="0 0 24 24" fill="none" xmlns="http://www.w3.org/2000/svg">
<path fill-rule="evenodd" clip-rule="evenodd" d="M14.4812 10.1786C13.7469 10.6693 12.8835 10.9312 12.0003 10.9312C10.8159 10.9312 9.68009 10.4607 8.84263 9.62326C8.00517 8.78579 7.53468 7.64995 7.53468 6.4656C7.53468 5.58239 7.79659 4.71901 8.28727 3.98465C8.77796 3.25028 9.47539 2.67792 10.2914 2.33993C11.1074 2.00193 12.0052 1.9135 12.8715 2.08581C13.7377 2.25811 14.5334 2.68342 15.1579 3.30795C15.7825 3.93247 16.2078 4.72816 16.3801 5.59441C16.5524 6.46065 16.4639 7.35853 16.126 8.17451C15.788 8.99049 15.2156 9.68792 14.4812 10.1786ZM19.4882 21.673C19.2788 21.8824 18.9948 22 18.6987 22H5.30195C5.00586 22 4.7219 21.8824 4.51253 21.673C4.30317 21.4636 4.18555 21.1797 4.18555 20.8836C4.18555 18.811 5.00889 16.8233 6.47445 15.3577C7.94001 13.8921 9.92773 13.0688 12.0003 13.0688C14.073 13.0688 16.0607 13.8921 17.5262 15.3577C18.9918 16.8233 19.8151 18.811 19.8151 20.8836C19.8151 21.1797 19.6975 21.4636 19.4882 21.673Z" fill="#0F0F0F"/>
</svg>
