<svg width="24" height="24" viewBox="0 0 24 24" fill="none" xmlns="http://www.w3.org/2000/svg">
<path d="M21.4282 4.07826L21.3951 4.05762L17.2186 2L12.7107 8.0105L14.7847 10.776C14.7226 11.8189 14.2803 12.8029 13.5416 13.5416C12.8028 14.2804 11.8188 14.7227 10.7759 14.7847L8.01045 12.7107L2 17.2185L4.04049 21.3602L4.05767 21.3951L4.07836 21.4281C4.18725 21.6036 4.33923 21.7482 4.51984 21.8483C4.70046 21.9484 4.90368 22.0006 5.11018 22H6.18787C8.26435 22 10.3205 21.591 12.2389 20.7964C14.1573 20.0017 15.9005 18.837 17.3687 17.3687C18.837 15.9004 20.0017 14.1573 20.7964 12.2389C21.591 10.3205 22 8.2643 22 6.18782V5.11008C22.0007 4.90359 21.9485 4.70036 21.8484 4.51975C21.7483 4.33914 21.6036 4.18715 21.4282 4.07826ZM20.4566 6.18782C20.4566 14.0556 14.0556 20.4566 6.18787 20.4566H5.31584L3.95059 17.685L8.01074 14.6399L10.2712 16.3352H10.5284C12.0681 16.3335 13.5441 15.7211 14.6328 14.6325C15.7215 13.5438 16.3338 12.0677 16.3356 10.5281V10.2709L14.6403 8.01046L17.685 3.95054L20.4566 5.31603V6.18782Z" fill="#0F0F0F"/>
</svg>
