<svg width="24" height="24" viewBox="0 0 24 24" fill="none" xmlns="http://www.w3.org/2000/svg">
<path d="M12 2C6.47639 2 2 6.47639 2 12C2 17.5236 6.47639 22 12 22C17.5236 22 22 17.5236 22 12C22 6.47639 17.5236 2 12 2ZM12.9446 16.538H11.1787V15.0184H12.9446V16.538ZM12.9651 13.0266V13.889H11.1787V11.3634H12.0616C12.8008 11.3634 13.3962 10.768 13.3962 10.0288C13.3962 9.28957 12.8008 8.69416 12.0616 8.69416C11.3224 8.69416 10.727 9.28957 10.727 10.0288H8.94055C8.94055 8.30398 10.3368 6.9076 12.0617 6.9076C13.7864 6.9076 15.1828 8.30383 15.1828 10.0286C15.1828 11.4455 14.2588 12.6365 12.9651 13.0267V13.0266Z" fill="#716A6A"/>
</svg>
