<svg width="24" height="24" viewBox="0 0 24 24" fill="none" xmlns="http://www.w3.org/2000/svg">
<path d="M20.2488 17.3148L17.2574 14.3235L14.9565 13.3729C15.7226 12.2834 16.1331 10.9836 16.1316 9.65173C16.1316 6.07145 13.2188 3.15869 9.63855 3.15869C6.05826 3.15869 3.14551 6.07145 3.14551 9.65173C3.14551 13.232 6.05826 16.1448 9.63855 16.1448C10.982 16.1463 12.2925 15.7288 13.3875 14.9503L14.3356 17.245L17.3269 20.2365C17.5187 20.4284 17.7465 20.5806 17.9971 20.6844C18.2478 20.7882 18.5165 20.8417 18.7878 20.8417C19.0591 20.8417 19.3277 20.7883 19.5784 20.6845C19.8291 20.5806 20.0568 20.4285 20.2487 20.2366C20.4405 20.0448 20.5927 19.817 20.6966 19.5664C20.8004 19.3157 20.8538 19.0471 20.8538 18.7758C20.8538 18.5044 20.8004 18.2358 20.6966 17.9851C20.5928 17.7345 20.4406 17.5067 20.2488 17.3148ZM4.32606 9.65173C4.32606 6.72249 6.7093 4.33924 9.63855 4.33924C12.5678 4.33924 14.951 6.72249 14.951 9.65173C14.951 12.581 12.5678 14.9642 9.63855 14.9642C6.7093 14.9642 4.32606 12.581 4.32606 9.65173ZM19.4139 19.4018C19.2477 19.5676 19.0226 19.6607 18.7878 19.6607C18.5531 19.6607 18.3279 19.5676 18.1617 19.4018L15.3368 16.5769L14.4553 14.4432L16.5891 15.3247L19.414 18.1496C19.5798 18.3158 19.6729 18.541 19.6729 18.7757C19.6729 19.0104 19.5797 19.2356 19.4139 19.4018Z" fill="#716A6A"/>
</svg>
