<svg width="24" height="24" viewBox="0 0 24 24" fill="none" xmlns="http://www.w3.org/2000/svg">
<path fill-rule="evenodd" clip-rule="evenodd" d="M13.0047 2.98893C13.3556 2.38286 14.0253 2.00016 14.7271 2.00016L14.7271 2C15.9712 2 16.8961 3.11654 16.6729 4.32848L15.7798 8.22001H19.0332C20.5324 8.22001 21.7446 9.43224 21.7446 10.9314V12.4625L21.7442 17.7576V17.9171C21.7442 20.1499 19.894 22 17.6612 22H12.8447C11.6007 22 10.4844 21.4257 9.71881 20.5326C9.30425 20.0542 8.6982 19.799 8.09208 19.799H7.35849C6.97581 19.799 6.65674 19.48 6.65674 19.0972V11.1228C6.65674 10.7401 6.97578 10.4211 7.35849 10.4211H7.90072C8.66638 10.4211 9.36812 10.0066 9.71901 9.33659L13.0047 2.98893ZM15.1098 8.02884L15.9711 4.16909C16.0349 3.81822 15.9393 3.4355 15.6841 3.14847C15.4607 2.86144 15.1098 2.70191 14.7271 2.70191C14.2805 2.70191 13.866 2.9571 13.6426 3.33981L10.3254 9.65557C9.84695 10.5489 8.92203 11.123 7.90118 11.123H7.35895V19.0974H8.09254C8.95361 19.0974 9.75106 19.4483 10.2615 20.0862C10.8994 20.8518 11.8564 21.2984 12.8451 21.2984H17.6616C19.5436 21.2984 21.0427 19.7673 21.0427 17.9173V10.8997C21.0427 9.78327 20.1497 8.89013 19.0331 8.89013H14.9184L15.1098 8.02884ZM5.92324 11.2827V19.1933C5.92324 19.6081 5.60419 19.9269 5.22149 19.8951H2.95663C2.57395 19.8951 2.25488 19.576 2.25488 19.1933V11.2827C2.25488 10.9 2.57393 10.5809 2.95663 10.5809H5.22149C5.60417 10.5809 5.92324 10.9 5.92324 11.2827ZM5.18965 11.2827H2.92479V19.1933H5.18965V11.2827Z" fill="#0F0F0F"/>
</svg>
