<svg width="24" height="24" viewBox="0 0 24 24" fill="none" xmlns="http://www.w3.org/2000/svg">
<path fill-rule="evenodd" clip-rule="evenodd" d="M21.7611 10.9315V17.7896L21.7607 17.9171C21.7607 20.1499 19.9106 22 17.6778 22H12.8612C11.6172 22 10.5009 21.4257 9.73528 20.5326C9.32072 20.0542 8.71466 19.799 8.10854 19.799H7.37494C6.99226 19.799 6.67319 19.4799 6.67319 19.0972V11.1227C6.67319 10.74 6.99224 10.421 7.37494 10.421H7.91718C8.68285 10.421 9.38459 10.0065 9.73548 9.33649L13.0212 2.98878C13.3721 2.38271 14.0418 2 14.7436 2C15.9876 2 16.9128 3.11632 16.6894 4.3285L15.7962 8.22006H19.0496C20.5489 8.22006 21.7611 9.43229 21.7611 10.9315ZM5.20611 19.9268H2.94124L2.94124 19.9268C2.55833 19.9268 2.23948 19.6079 2.23926 19.1932V11.2825C2.23926 10.8998 2.55831 10.5807 2.94101 10.5807H5.20589C5.58857 10.5807 5.90764 10.8998 5.90764 11.2825L5.90787 19.2251C5.90787 19.6078 5.58882 19.9268 5.20611 19.9268Z" fill="#F1A663"/>
</svg>
