<svg width="24" height="24" viewBox="0 0 24 24" fill="none" xmlns="http://www.w3.org/2000/svg">
<path d="M21.5825 7.1674C21.3449 6.32402 20.6872 5.66256 19.8401 5.42874C18.2802 5.01174 12.0096 5.01174 12.0096 5.01174C12.0096 5.01174 5.75076 5.00174 4.17465 5.42874C3.33189 5.66319 2.67106 6.32402 2.43599 7.1674C2.14027 8.76602 1.99335 10.384 2.00023 12.0095C1.9971 13.6244 2.1434 15.2399 2.43599 16.8285C2.67106 17.6719 3.33189 18.3333 4.17465 18.5709C5.7345 18.9879 12.0096 18.9879 12.0096 18.9879C12.0096 18.9879 18.2646 18.9879 19.8401 18.5709C20.6872 18.3333 21.3449 17.6725 21.5825 16.8285C21.8694 15.2399 22.0095 13.6244 21.9995 12.0095C22.0095 10.384 21.8726 8.76602 21.5825 7.1674ZM10.0064 15.0023V9.00359L15.2262 12.0095L10.0064 15.0023Z" fill="#0F0F0F"/>
</svg>
